<?xml version="1.0" encoding="UTF-8" standalone="no"?><!DOCTYPE svg PUBLIC "-//W3C//DTD SVG 1.1//EN" "http://www.w3.org/Graphics/SVG/1.1/DTD/svg11.dtd"><svg width="100%" height="100%" viewBox="0 0 2834 667" version="1.1" xmlns="http://www.w3.org/2000/svg" xmlns:xlink="http://www.w3.org/1999/xlink" xml:space="preserve" xmlns:serif="http://www.serif.com/" style="fill-rule:evenodd;clip-rule:evenodd;stroke-linejoin:round;stroke-miterlimit:2;"><g><path d="M2833.333,66.667l0,533.333c0,36.794 -29.872,66.667 -66.667,66.667l-2700,0c-36.794,0 -66.667,-29.872 -66.667,-66.667l0,-533.333c0,-36.794 29.872,-66.667 66.667,-66.667l2700,0c36.794,0 66.667,29.872 66.667,66.667Z" style="fill:#1e3a5f;"/><g><g><g><g><g><g><g><path d="M376.942,135.688c38.863,0 77.726,14.826 107.378,44.479c55.291,55.293 59.008,142.6 11.198,202.227l16.647,16.647c8.813,-1.424 18.155,1.191 24.944,7.988l74.833,74.831c11.239,11.235 11.239,29.451 0,40.688c-5.614,5.618 -12.982,8.429 -20.343,8.429c-7.361,0 -14.729,-2.81 -20.343,-8.429l-74.833,-74.833c-6.793,-6.793 -9.408,-16.126 -7.988,-24.937l-16.649,-16.649c-27.65,22.17 -61.241,33.279 -94.844,33.279c-38.865,0 -77.728,-14.826 -107.381,-44.479c-59.306,-59.306 -59.306,-155.456 0,-214.759c29.651,-29.655 68.516,-44.481 107.381,-44.481Zm-83.644,235.501c22.342,22.344 52.046,34.646 83.644,34.646c31.595,0 61.3,-12.303 83.641,-34.646c22.344,-22.342 34.646,-52.046 34.646,-83.641c0,-31.597 -12.303,-61.302 -34.646,-83.644c-22.342,-22.342 -52.046,-34.646 -83.641,-34.646c-31.597,0 -61.302,12.305 -83.644,34.646c-22.342,22.342 -34.646,52.046 -34.646,83.644c0,31.595 12.305,61.3 34.646,83.641Z" style="fill:#c1502e;fill-rule:nonzero;"/></g></g></g></g><g><g><g><path d="M381.975,235.732l42.031,108.281c1.615,4.156 3.431,7.012 5.451,8.568c2.018,1.558 3.837,2.391 5.451,2.5l0,3.464c-3.461,-0.23 -7.526,-0.375 -12.196,-0.434c-4.67,-0.056 -9.371,-0.087 -14.097,-0.087c-5.308,0 -10.326,0.03 -15.052,0.087c-4.729,0.059 -8.477,0.204 -11.241,0.434l0,-3.464c5.879,-0.226 9.596,-1.233 11.155,-3.021c1.556,-1.788 1.183,-5.621 -1.12,-11.502l-29.41,-80.434l3.116,-4.505l-26.293,68.507c-2.535,6.343 -4.062,11.532 -4.583,15.564c-0.521,4.034 -0.234,7.148 0.859,9.34c1.098,2.194 2.886,3.724 5.365,4.592c2.483,0.864 5.451,1.35 8.906,1.458l0,3.464c-3.802,-0.23 -7.435,-0.375 -10.894,-0.434c-3.461,-0.056 -6.977,-0.087 -10.547,-0.087c-2.541,0 -4.937,0.03 -7.188,0.087c-2.246,0.059 -4.232,0.204 -5.964,0.434l0,-3.464c2.426,-0.456 4.905,-2.01 7.439,-4.661c2.535,-2.656 5.013,-7.155 7.439,-13.498l39.436,-101.189c1.845,0.117 3.832,0.174 5.964,0.174c2.135,0 4.125,-0.056 5.972,-0.174Zm12.109,72.995l0,3.464l-51.545,0l1.727,-3.464l49.818,0Zm-18.168,-112.266c5.074,0 9.484,1.502 13.229,4.505c3.75,2.999 5.625,7.09 5.625,12.274c0,5.191 -1.875,9.314 -5.625,12.37c-3.746,3.056 -8.155,4.583 -13.229,4.583c-4.954,0 -9.306,-1.528 -13.056,-4.583c-3.75,-3.056 -5.625,-7.179 -5.625,-12.37c0,-5.184 1.875,-9.275 5.625,-12.274c3.75,-3.003 8.101,-4.505 13.056,-4.505Zm0,3.637c-3.229,0 -6.343,1.155 -9.34,3.464c-2.999,2.305 -4.497,5.588 -4.497,9.852c0,4.382 1.497,7.669 4.497,9.861c2.997,2.194 6.111,3.29 9.34,3.29c3.344,0 6.515,-1.096 9.514,-3.29c3.003,-2.192 4.505,-5.48 4.505,-9.861c0,-4.264 -1.502,-7.548 -4.505,-9.852c-2.999,-2.309 -6.17,-3.464 -9.514,-3.464Z" style="fill:#c1502e;fill-rule:nonzero;"/></g></g></g></g></g></g><text x="1083.333px" y="316.667px" style="font-family:'Georgia', serif;font-size:175px;fill:#c1502e;">Ordbøkene</text><text x="1083.333px" y="425px" style="font-family:'Georgia', serif;font-size:66.667px;fill:#cbb89a;">Bokmålsordboka · Nynorskordboka</text><text x="1083.333px" y="525px" style="font-family:'ArialMT', 'Arial', sans-serif;font-size:54.167px;fill:#8fa3b8;">StarDict for GoldenDict og andre ordboklesere</text><g opacity="0.65"><path d="M179.167,587.5l0,41.667c0,2.3 -1.867,4.167 -4.167,4.167l-4.167,0c-2.3,0 -4.167,-1.867 -4.167,-4.167l0,-41.667c0,-2.3 1.867,-4.167 4.167,-4.167l4.167,0c2.3,0 4.167,1.867 4.167,4.167Z" style="fill:#c1502e;"/><path d="M387.5,587.5l0,41.667c0,2.3 -1.867,4.167 -4.167,4.167l-4.167,0c-2.3,0 -4.167,-1.867 -4.167,-4.167l0,-41.667c0,-2.3 1.867,-4.167 4.167,-4.167l4.167,0c2.3,0 4.167,1.867 4.167,4.167Z" style="fill:#c1502e;"/><path d="M595.833,587.5l0,41.667c0,2.3 -1.867,4.167 -4.167,4.167l-4.167,0c-2.3,0 -4.167,-1.867 -4.167,-4.167l0,-41.667c0,-2.3 1.867,-4.167 4.167,-4.167l4.167,0c2.3,0 4.167,1.867 4.167,4.167Z" style="fill:#c1502e;"/><path d="M804.167,587.5l0,41.667c0,2.3 -1.867,4.167 -4.167,4.167l-4.167,0c-2.3,0 -4.167,-1.867 -4.167,-4.167l0,-41.667c0,-2.3 1.867,-4.167 4.167,-4.167l4.167,0c2.3,0 4.167,1.867 4.167,4.167Z" style="fill:#c1502e;"/><path d="M1012.5,587.5l0,41.667c0,2.3 -1.867,4.167 -4.167,4.167l-4.167,0c-2.3,0 -4.167,-1.867 -4.167,-4.167l0,-41.667c0,-2.3 1.867,-4.167 4.167,-4.167l4.167,0c2.3,0 4.167,1.867 4.167,4.167Z" style="fill:#c1502e;"/><path d="M1220.833,587.5l0,41.667c0,2.3 -1.867,4.167 -4.167,4.167l-4.167,0c-2.3,0 -4.167,-1.867 -4.167,-4.167l0,-41.667c0,-2.3 1.867,-4.167 4.167,-4.167l4.167,0c2.3,0 4.167,1.867 4.167,4.167Z" style="fill:#c1502e;"/><path d="M1429.167,587.5l0,41.667c0,2.3 -1.867,4.167 -4.167,4.167l-4.167,0c-2.3,0 -4.167,-1.867 -4.167,-4.167l0,-41.667c0,-2.3 1.867,-4.167 4.167,-4.167l4.167,0c2.3,0 4.167,1.867 4.167,4.167Z" style="fill:#c1502e;"/><path d="M1637.5,587.5l0,41.667c0,2.3 -1.867,4.167 -4.167,4.167l-4.167,0c-2.3,0 -4.167,-1.867 -4.167,-4.167l0,-41.667c0,-2.3 1.867,-4.167 4.167,-4.167l4.167,0c2.3,0 4.167,1.867 4.167,4.167Z" style="fill:#c1502e;"/><path d="M1845.833,587.5l0,41.667c0,2.3 -1.867,4.167 -4.167,4.167l-4.167,0c-2.3,0 -4.167,-1.867 -4.167,-4.167l0,-41.667c0,-2.3 1.867,-4.167 4.167,-4.167l4.167,0c2.3,0 4.167,1.867 4.167,4.167Z" style="fill:#c1502e;"/><path d="M2054.167,587.5l0,41.667c0,2.3 -1.867,4.167 -4.167,4.167l-4.167,0c-2.3,0 -4.167,-1.867 -4.167,-4.167l0,-41.667c0,-2.3 1.867,-4.167 4.167,-4.167l4.167,0c2.3,0 4.167,1.867 4.167,4.167Z" style="fill:#c1502e;"/><path d="M2262.5,587.5l0,41.667c0,2.3 -1.867,4.167 -4.167,4.167l-4.167,0c-2.3,0 -4.167,-1.867 -4.167,-4.167l0,-41.667c0,-2.3 1.867,-4.167 4.167,-4.167l4.167,0c2.3,0 4.167,1.867 4.167,4.167Z" style="fill:#c1502e;"/><path d="M2470.833,587.5l0,41.667c0,2.3 -1.867,4.167 -4.167,4.167l-4.167,0c-2.3,0 -4.167,-1.867 -4.167,-4.167l0,-41.667c0,-2.3 1.867,-4.167 4.167,-4.167l4.167,0c2.3,0 4.167,1.867 4.167,4.167Z" style="fill:#c1502e;"/><path d="M2679.167,587.5l0,41.667c0,2.3 -1.867,4.167 -4.167,4.167l-4.167,0c-2.3,0 -4.167,-1.867 -4.167,-4.167l0,-41.667c0,-2.3 1.867,-4.167 4.167,-4.167l4.167,0c2.3,0 4.167,1.867 4.167,4.167Z" style="fill:#c1502e;"/></g></g></svg>