<svg xmlns="http://www.w3.org/2000/svg" xmlns:xlink="http://www.w3.org/1999/xlink" width="1000" zoomAndPan="magnify" viewBox="0 0 750 749.999995" height="1000" preserveAspectRatio="xMidYMid meet" version="1.0"><defs><g/><clipPath id="f6a30e3717"><path d="M 75 0 L 675 0 C 694.890625 0 713.96875 7.902344 728.03125 21.96875 C 742.097656 36.03125 750 55.109375 750 75 L 750 675 C 750 694.890625 742.097656 713.96875 728.03125 728.03125 C 713.96875 742.097656 694.890625 750 675 750 L 75 750 C 55.109375 750 36.03125 742.097656 21.96875 728.03125 C 7.902344 713.96875 0 694.890625 0 675 L 0 75 C 0 55.109375 7.902344 36.03125 21.96875 21.96875 C 36.03125 7.902344 55.109375 0 75 0 Z M 75 0 " clip-rule="nonzero"/></clipPath><clipPath id="c436f5912e"><path d="M 0 0 L 750 0 L 750 750 L 0 750 Z M 0 0 " clip-rule="nonzero"/></clipPath><clipPath id="a31734f1b8"><path d="M 75 0 L 675 0 C 694.890625 0 713.96875 7.902344 728.03125 21.96875 C 742.097656 36.03125 750 55.109375 750 75 L 750 675 C 750 694.890625 742.097656 713.96875 728.03125 728.03125 C 713.96875 742.097656 694.890625 750 675 750 L 75 750 C 55.109375 750 36.03125 742.097656 21.96875 728.03125 C 7.902344 713.96875 0 694.890625 0 675 L 0 75 C 0 55.109375 7.902344 36.03125 21.96875 21.96875 C 36.03125 7.902344 55.109375 0 75 0 Z M 75 0 " clip-rule="nonzero"/></clipPath><clipPath id="15dd37778a"><rect x="0" width="750" y="0" height="750"/></clipPath><clipPath id="05731c2fb6"><path d="M 96 87.75 L 672 87.75 L 672 662.25 L 96 662.25 Z M 96 87.75 " clip-rule="nonzero"/></clipPath><clipPath id="e397d992ab"><path d="M 0.480469 0.75 L 575 0.75 L 575 575.25 L 0.480469 575.25 Z M 0.480469 0.75 " clip-rule="nonzero"/></clipPath><clipPath id="a21432654c"><rect x="0" width="576" y="0" height="576"/></clipPath></defs><g clip-path="url(#f6a30e3717)"><g transform="matrix(1, 0, 0, 1, 0, -0.000000000000042435)"><g clip-path="url(#15dd37778a)"><g clip-path="url(#c436f5912e)"><g clip-path="url(#a31734f1b8)"><rect x="-165" width="1080" fill="#1e3a5f" height="1079.999992" y="-164.999999" fill-opacity="1"/></g></g></g></g></g><g clip-path="url(#05731c2fb6)"><g transform="matrix(1, 0, 0, 1, 96, 87)"><g clip-path="url(#a21432654c)"><g clip-path="url(#e397d992ab)"><path fill="#c1502e" d="M 221.28125 0.828125 C 277.746094 0.828125 334.214844 22.367188 377.300781 65.453125 C 457.636719 145.792969 463.039062 272.648438 393.570312 359.285156 L 417.757812 383.46875 C 430.5625 381.402344 444.136719 385.203125 454 395.078125 L 562.730469 503.804688 C 579.0625 520.128906 579.0625 546.597656 562.730469 562.921875 C 554.574219 571.085938 543.871094 575.171875 533.171875 575.171875 C 522.476562 575.171875 511.773438 571.085938 503.613281 562.921875 L 394.886719 454.195312 C 385.015625 444.324219 381.214844 430.761719 383.277344 417.960938 L 359.085938 393.769531 C 318.914062 425.980469 270.105469 442.121094 221.28125 442.121094 C 164.8125 442.121094 108.34375 420.578125 65.257812 377.496094 C -20.90625 291.328125 -20.90625 151.625 65.257812 65.457031 C 108.34375 22.367188 164.808594 0.828125 221.28125 0.828125 Z M 99.75 343.003906 C 132.210938 375.46875 175.371094 393.34375 221.28125 393.34375 C 267.191406 393.34375 310.351562 375.46875 342.8125 343.003906 C 375.273438 310.542969 393.152344 267.382812 393.152344 221.472656 C 393.152344 175.566406 375.273438 132.402344 342.8125 99.941406 C 310.351562 67.480469 267.1875 49.601562 221.28125 49.601562 C 175.371094 49.601562 132.210938 67.480469 99.75 99.941406 C 67.285156 132.402344 49.410156 175.5625 49.410156 221.472656 C 49.410156 267.382812 67.285156 310.542969 99.75 343.003906 Z M 99.75 343.003906 " fill-opacity="1" fill-rule="nonzero"/></g></g></g></g><g fill="#c1502e" fill-opacity="1"><g transform="translate(232.106022, 411.6306)"><g><path d="M 92.484375 -178.4375 L 153.5625 -21.109375 C 155.90625 -15.078125 158.539062 -10.929688 161.46875 -8.671875 C 164.40625 -6.410156 167.046875 -5.195312 169.390625 -5.03125 L 169.390625 0 C 164.367188 -0.332031 158.460938 -0.539062 151.671875 -0.625 C 144.890625 -0.707031 138.0625 -0.75 131.1875 -0.75 C 123.476562 -0.75 116.1875 -0.707031 109.3125 -0.625 C 102.445312 -0.539062 97.003906 -0.332031 92.984375 0 L 92.984375 -5.03125 C 101.535156 -5.363281 106.941406 -6.828125 109.203125 -9.421875 C 111.460938 -12.023438 110.914062 -17.597656 107.5625 -26.140625 L 64.84375 -143 L 69.359375 -149.546875 L 31.171875 -50.015625 C 27.484375 -40.796875 25.257812 -33.253906 24.5 -27.390625 C 23.75 -21.523438 24.171875 -17 25.765625 -13.8125 C 27.359375 -10.632812 29.953125 -8.414062 33.546875 -7.15625 C 37.148438 -5.90625 41.46875 -5.195312 46.5 -5.03125 L 46.5 0 C 40.96875 -0.332031 35.6875 -0.539062 30.65625 -0.625 C 25.632812 -0.707031 20.523438 -0.75 15.328125 -0.75 C 11.640625 -0.75 8.160156 -0.707031 4.890625 -0.625 C 1.628906 -0.539062 -1.253906 -0.332031 -3.765625 0 L -3.765625 -5.03125 C -0.242188 -5.695312 3.351562 -7.957031 7.03125 -11.8125 C 10.71875 -15.664062 14.320312 -22.203125 17.84375 -31.421875 L 75.140625 -178.4375 C 77.828125 -178.269531 80.71875 -178.1875 83.8125 -178.1875 C 86.914062 -178.1875 89.804688 -178.269531 92.484375 -178.4375 Z M 110.078125 -72.375 L 110.078125 -67.359375 L 35.1875 -67.359375 L 37.703125 -72.375 Z M 83.6875 -235.5 C 91.0625 -235.5 97.46875 -233.316406 102.90625 -228.953125 C 108.351562 -224.597656 111.078125 -218.648438 111.078125 -211.109375 C 111.078125 -203.578125 108.351562 -197.585938 102.90625 -193.140625 C 97.46875 -188.703125 91.0625 -186.484375 83.6875 -186.484375 C 76.476562 -186.484375 70.148438 -188.703125 64.703125 -193.140625 C 59.265625 -197.585938 56.546875 -203.578125 56.546875 -211.109375 C 56.546875 -218.648438 59.265625 -224.597656 64.703125 -228.953125 C 70.148438 -233.316406 76.476562 -235.5 83.6875 -235.5 Z M 83.6875 -230.21875 C 79 -230.21875 74.472656 -228.539062 70.109375 -225.1875 C 65.753906 -221.832031 63.578125 -217.054688 63.578125 -210.859375 C 63.578125 -204.492188 65.753906 -199.71875 70.109375 -196.53125 C 74.472656 -193.351562 79 -191.765625 83.6875 -191.765625 C 88.550781 -191.765625 93.160156 -193.351562 97.515625 -196.53125 C 101.867188 -199.71875 104.046875 -204.492188 104.046875 -210.859375 C 104.046875 -217.054688 101.867188 -221.832031 97.515625 -225.1875 C 93.160156 -228.539062 88.550781 -230.21875 83.6875 -230.21875 Z M 83.6875 -230.21875 "/></g></g></g></svg>