<svg xmlns="http://www.w3.org/2000/svg" xmlns:xlink="http://www.w3.org/1999/xlink" width="1000" zoomAndPan="magnify" viewBox="0 0 750 749.999995" height="1000" preserveAspectRatio="xMidYMid meet" version="1.0"><defs><g/><clipPath id="3bdcc6299d"><path d="M 0 3.144531 L 711.839844 3.144531 L 711.839844 714.800781 L 0 714.800781 Z M 0 3.144531 " clip-rule="nonzero"/></clipPath><clipPath id="83ac035c89"><path d="M 0 0.144531 L 711.839844 0.144531 L 711.839844 711.800781 L 0 711.800781 Z M 0 0.144531 " clip-rule="nonzero"/></clipPath><clipPath id="365eaf4937"><rect x="0" width="712" y="0" height="712"/></clipPath><clipPath id="927ee04297"><rect x="0" width="712" y="0" height="715"/></clipPath></defs><g transform="matrix(1, 0, 0, 1, 30, 16)"><g clip-path="url(#927ee04297)"><g clip-path="url(#3bdcc6299d)"><g transform="matrix(1, 0, 0, 1, -0.000000000000007105, 3)"><g clip-path="url(#365eaf4937)"><g clip-path="url(#83ac035c89)"><path fill="#24375f" d="M 273.496094 0.238281 C 343.449219 0.238281 413.402344 26.925781 466.777344 80.300781 C 566.300781 179.828125 572.992188 336.980469 486.933594 444.308594 L 516.898438 474.273438 C 532.761719 471.710938 549.578125 476.417969 561.796875 488.652344 L 696.496094 623.347656 C 716.726562 643.570312 716.726562 676.359375 696.496094 696.585938 C 686.390625 706.699219 673.128906 711.757812 659.878906 711.757812 C 646.628906 711.757812 633.367188 706.699219 623.261719 696.585938 L 488.5625 561.886719 C 476.335938 549.660156 471.628906 532.859375 474.183594 517 L 444.214844 487.03125 C 394.445312 526.9375 333.980469 546.933594 273.496094 546.933594 C 203.539062 546.933594 133.585938 520.246094 80.210938 466.871094 C -26.539062 360.121094 -26.539062 187.050781 80.210938 80.304688 C 133.582031 26.925781 203.539062 0.238281 273.496094 0.238281 Z M 122.9375 424.140625 C 163.152344 464.359375 216.621094 486.503906 273.496094 486.503906 C 330.367188 486.503906 383.835938 464.359375 424.050781 424.140625 C 464.269531 383.925781 486.414062 330.457031 486.414062 273.585938 C 486.414062 216.710938 464.269531 163.242188 424.050781 123.027344 C 383.835938 82.8125 330.367188 60.664062 273.496094 60.664062 C 216.621094 60.664062 163.152344 82.8125 122.9375 123.027344 C 82.722656 163.242188 60.574219 216.710938 60.574219 273.585938 C 60.574219 330.457031 82.722656 383.925781 122.9375 424.140625 Z M 122.9375 424.140625 " fill-opacity="1" fill-rule="nonzero"/></g></g></g></g><g fill="#24375f" fill-opacity="1"><g transform="translate(167.977464, 404.37941)"><g><path d="M 114.578125 -221.0625 L 190.234375 -26.15625 C 193.140625 -18.675781 196.410156 -13.535156 200.046875 -10.734375 C 203.679688 -7.929688 206.953125 -6.429688 209.859375 -6.234375 L 209.859375 0 C 203.628906 -0.414062 196.3125 -0.675781 187.90625 -0.78125 C 179.5 -0.882812 171.039062 -0.9375 162.53125 -0.9375 C 152.976562 -0.9375 143.945312 -0.882812 135.4375 -0.78125 C 126.925781 -0.675781 120.179688 -0.414062 115.203125 0 L 115.203125 -6.234375 C 125.785156 -6.640625 132.476562 -8.453125 135.28125 -11.671875 C 138.082031 -14.890625 137.410156 -21.789062 133.265625 -32.375 L 80.328125 -177.15625 L 85.9375 -185.265625 L 38.609375 -61.953125 C 34.046875 -50.535156 31.296875 -41.195312 30.359375 -33.9375 C 29.421875 -26.675781 29.9375 -21.070312 31.90625 -17.125 C 33.882812 -13.175781 37.101562 -10.421875 41.5625 -8.859375 C 46.03125 -7.304688 51.375 -6.429688 57.59375 -6.234375 L 57.59375 0 C 50.75 -0.414062 44.210938 -0.675781 37.984375 -0.78125 C 31.753906 -0.882812 25.425781 -0.9375 19 -0.9375 C 14.425781 -0.9375 10.113281 -0.882812 6.0625 -0.78125 C 2.019531 -0.675781 -1.554688 -0.414062 -4.671875 0 L -4.671875 -6.234375 C -0.304688 -7.054688 4.15625 -9.851562 8.71875 -14.625 C 13.28125 -19.40625 17.742188 -27.503906 22.109375 -38.921875 L 93.09375 -221.0625 C 96.414062 -220.851562 99.992188 -220.75 103.828125 -220.75 C 107.671875 -220.75 111.253906 -220.851562 114.578125 -221.0625 Z M 136.375 -89.671875 L 136.375 -83.4375 L 43.59375 -83.4375 L 46.703125 -89.671875 Z M 103.671875 -291.75 C 112.804688 -291.75 120.742188 -289.046875 127.484375 -283.640625 C 134.234375 -278.242188 137.609375 -270.878906 137.609375 -261.546875 C 137.609375 -252.203125 134.234375 -244.78125 127.484375 -239.28125 C 120.742188 -233.78125 112.804688 -231.03125 103.671875 -231.03125 C 94.753906 -231.03125 86.921875 -233.78125 80.171875 -239.28125 C 73.421875 -244.78125 70.046875 -252.203125 70.046875 -261.546875 C 70.046875 -270.878906 73.421875 -278.242188 80.171875 -283.640625 C 86.921875 -289.046875 94.753906 -291.75 103.671875 -291.75 Z M 103.671875 -285.203125 C 97.859375 -285.203125 92.253906 -283.125 86.859375 -278.96875 C 81.460938 -274.820312 78.765625 -268.910156 78.765625 -261.234375 C 78.765625 -253.347656 81.460938 -247.429688 86.859375 -243.484375 C 92.253906 -239.535156 97.859375 -237.5625 103.671875 -237.5625 C 109.691406 -237.5625 115.398438 -239.535156 120.796875 -243.484375 C 126.203125 -247.429688 128.90625 -253.347656 128.90625 -261.234375 C 128.90625 -268.910156 126.203125 -274.820312 120.796875 -278.96875 C 115.398438 -283.125 109.691406 -285.203125 103.671875 -285.203125 Z M 103.671875 -285.203125 "/></g></g></g></g></g></svg>